<svg width="53" height="55" viewBox="0 0 53 55" fill="none" xmlns="http://www.w3.org/2000/svg">
<path d="M49.9023 0.600586H3.81201C2.15516 0.600586 0.812012 1.94373 0.812012 3.60059V51.0234C0.812012 52.6803 2.15516 54.0234 3.81201 54.0234H49.9023C51.5591 54.0234 52.9023 52.6803 52.9023 51.0234V3.60059C52.9023 1.94373 51.5591 0.600586 49.9023 0.600586Z" fill="white"/>
<path d="M34.8069 32.256C34.4858 32.1237 34.1895 31.9353 33.9311 31.6992C33.1917 31.0386 32.7135 30.1233 32.5868 29.126C32.5252 28.6365 32.546 28.1398 32.6481 27.6575C32.7891 27.0193 33.1016 26.4344 33.5502 25.969C33.8435 25.6681 34.1457 25.3762 34.4259 25.0708C34.5154 24.988 34.5713 24.8738 34.5826 24.7507C34.594 24.6277 34.5599 24.5048 34.4872 24.4062C34.1664 23.9807 33.7924 23.6002 33.375 23.2745C32.8433 22.863 32.2331 22.5708 31.5841 22.4168C31.1219 22.2997 30.6447 22.2572 30.1697 22.291C29.3756 22.3893 28.5953 22.5823 27.8446 22.8659C27.2649 23.0864 26.6324 23.1147 26.0362 22.9467C25.3227 22.7095 24.59 22.5382 23.8468 22.4347C23.0067 22.3125 22.15 22.4361 21.3753 22.7912C20.6007 23.1464 19.9395 23.7186 19.468 24.4421C19.057 25.0306 18.7434 25.6845 18.5397 26.3776C18.3324 27.0531 18.2131 27.7538 18.185 28.4613C18.1479 29.3932 18.2288 30.3261 18.4259 31.2366C18.5577 31.8361 18.7333 32.4246 18.9513 32.997C19.4386 34.3618 20.1396 35.6359 21.0269 36.7692C21.4918 37.3846 22.0919 37.8785 22.7784 38.2108C23.2114 38.4173 23.6944 38.4876 24.1664 38.4128C24.665 38.3156 25.1522 38.1651 25.6202 37.9638C25.9187 37.8417 26.2281 37.7499 26.5441 37.6898C27.0398 37.6225 27.5439 37.6764 28.0154 37.847C28.5233 38.0042 29.0138 38.1928 29.5217 38.332C29.8802 38.4398 30.2571 38.4679 30.6271 38.4145C30.9971 38.3611 31.3517 38.2273 31.6673 38.0222C32.4645 37.4748 33.1391 36.76 33.6465 35.925C34.2624 35.0079 34.7475 34.0053 35.0871 32.9476C35.1175 32.884 35.1344 32.8144 35.1365 32.7436C35.1387 32.6727 35.1261 32.6022 35.0996 32.5368C35.073 32.4713 35.0332 32.4124 34.9827 32.364C34.9323 32.3156 34.8723 32.2788 34.8069 32.256Z" fill="#294570"/>
<path d="M26.605 21.9265L26.8721 21.8996C27.4801 21.8762 28.0704 21.6837 28.5798 21.3427C28.9613 21.0633 29.3058 20.7342 29.6045 20.3636C29.9837 19.9129 30.2804 19.3956 30.4802 18.8367C30.6017 18.4262 30.6766 18.0028 30.7035 17.5747C30.7298 17.3187 30.7298 17.0717 30.7473 16.8157C30.7632 16.7249 30.7561 16.6314 30.7266 16.5442C30.6972 16.457 30.6464 16.3791 30.5792 16.3178C30.512 16.2565 30.4305 16.2139 30.3426 16.1941C30.2548 16.1744 30.1634 16.1781 30.0774 16.2049C29.6447 16.3104 29.2236 16.4609 28.8207 16.654C28.202 16.9253 27.6534 17.3404 27.2181 17.8666C26.4797 18.8324 26.0651 20.0169 26.0358 21.2439V21.446C26.0333 21.5191 26.0472 21.5918 26.0765 21.6585C26.1058 21.7251 26.1496 21.784 26.2047 21.8305C26.2598 21.8769 26.3245 21.9098 26.3939 21.9265C26.4634 21.9431 26.5356 21.9431 26.605 21.9265Z" fill="#294570"/>
</svg>
