<svg width="26" height="20" viewBox="0 0 26 20" fill="none" xmlns="http://www.w3.org/2000/svg">
<path d="M0.0402832 1.11111C0.0402832 0.49746 0.537743 0 1.15139 0H24.4436C25.0572 0 25.5547 0.49746 25.5547 1.11111C25.5547 1.72475 25.0572 2.22221 24.4436 2.22221H1.15139C0.537743 2.22221 0.0402832 1.72475 0.0402832 1.11111Z" fill="white"/>
<path d="M0.0402832 10C0.0402832 9.38638 0.537743 8.88892 1.15139 8.88892H24.4436C25.0572 8.88892 25.5547 9.38638 25.5547 10C25.5547 10.6137 25.0572 11.1111 24.4436 11.1111H1.15139C0.537743 11.1111 0.0402832 10.6137 0.0402832 10Z" fill="white"/>
<path d="M0.0402832 18.8891C0.0402832 18.2754 0.537743 17.778 1.15139 17.778H24.4436C25.0572 17.778 25.5547 18.2754 25.5547 18.8891C25.5547 19.5027 25.0572 20.0002 24.4436 20.0002H1.15139C0.537743 20.0002 0.0402832 19.5027 0.0402832 18.8891Z" fill="white"/>
</svg>
