<svg width="84" height="100" viewBox="0 0 84 100" fill="none" xmlns="http://www.w3.org/2000/svg">
<path d="M84 0H0V83.3438H84V0Z" fill="white"/>
<path d="M0 0L84 83.3438V0H0Z" fill="#1DAAB3"/>
<path d="M0 83.3438L16.8085 99.9999H67.1915L84 83.3438H0Z" fill="white"/>
<path d="M10.5757 68.8329V64.795H11.6567V68.7698C11.6567 69.7162 12.229 70.1999 13.098 70.1999C13.9459 70.1999 14.5182 69.7372 14.5182 68.7698V64.8161H15.6203V68.8539C15.6203 70.3471 14.5605 71.1883 13.098 71.1883C11.6355 71.1673 10.5757 70.3471 10.5757 68.8329Z" fill="#294570"/>
<path d="M20.5378 68.4965V71.0622H19.5204V68.6016C19.5204 68.0969 19.3085 67.7604 18.821 67.7604C18.1851 67.7604 17.8035 68.202 17.8035 68.8119V71.0622H16.7861V66.9612H17.4644L17.6764 67.6132C17.9519 67.1926 18.397 66.8561 19.0541 66.8561C20.0291 66.8561 20.5378 67.4449 20.5378 68.4965Z" fill="#294570"/>
<path d="M21.5765 65.5101C21.5765 65.1736 21.8097 64.9213 22.2124 64.9213C22.5939 64.9213 22.8483 65.1947 22.8483 65.5311C22.8483 65.8676 22.5939 66.12 22.2124 66.12C21.8097 66.099 21.5765 65.8466 21.5765 65.5101ZM21.6825 66.9612H22.6999V71.0622H21.6825V66.9612Z" fill="#294570"/>
<path d="M24.1833 69.8003V67.8024L23.4626 67.7393V66.9401H24.1833L24.2045 65.6362H25.1795V66.9401H26.4513V67.8024H25.1795V69.6951C25.1795 70.0947 25.3703 70.2209 25.6246 70.2209C25.8578 70.2209 26.091 70.1578 26.3241 70.0106L26.6421 70.7677C26.2605 70.999 25.8578 71.1462 25.3915 71.1462C24.6708 71.1462 24.1833 70.7256 24.1833 69.8003Z" fill="#294570"/>
<path d="M30.9875 68.8539C30.9875 69.0011 30.9663 69.1693 30.9451 69.3376H27.9777C28.1048 69.9895 28.6347 70.347 29.2918 70.347C29.7581 70.347 30.0973 70.1998 30.394 69.9685L30.8179 70.6204C30.3516 70.999 29.8429 71.1883 29.207 71.1883C27.8929 71.1883 26.9814 70.305 26.9814 69.0221C26.9814 67.8234 27.8505 66.877 29.1011 66.877C30.2668 66.856 30.9875 67.6341 30.9875 68.8539ZM27.9989 68.6646H30.0337C30.0125 68.0127 29.6098 67.6762 29.0799 67.6762C28.55 67.6551 28.1048 68.0127 27.9989 68.6646Z" fill="#294570"/>
<path d="M35.9895 64.4375V71.0411H35.29L35.1204 70.4312C34.7813 70.8729 34.2726 71.1463 33.6367 71.1463C32.4497 71.1463 31.6443 70.263 31.6443 68.9591C31.6443 67.7393 32.4709 66.835 33.6367 66.835C34.1878 66.835 34.6965 67.0453 35.0145 67.4239C34.9933 67.0453 34.9933 66.7088 34.9933 66.2462V64.4165H35.9895V64.4375ZM35.0357 69.0012C35.0357 68.2441 34.5693 67.7393 33.8487 67.7393C33.1492 67.7393 32.6829 68.2441 32.6829 69.0012C32.6829 69.7583 33.1492 70.284 33.8487 70.284C34.5693 70.284 35.0357 69.7583 35.0357 69.0012Z" fill="#294570"/>
<path d="M15.3243 77.8761C15.3243 78.9065 14.5188 79.6006 13.353 79.6006H10.6611V73.3545H13.1623C14.2645 73.3545 15.0699 74.0064 15.0699 74.9949C15.0699 75.5837 14.7732 76.0464 14.3281 76.3408C14.9215 76.5932 15.3243 77.161 15.3243 77.8761ZM11.7421 75.9412H12.9927C13.6074 75.9412 13.9465 75.6258 13.9465 75.058C13.9465 74.5532 13.5438 74.2378 12.9715 74.2378H11.7209V75.9412H11.7421ZM14.2221 77.7709C14.2221 77.2031 13.8193 76.8245 13.2047 76.8245H11.7421V78.7173H13.1623C13.7982 78.7173 14.2221 78.3598 14.2221 77.7709Z" fill="#294570"/>
<path d="M19.0971 75.5835L18.8428 76.4247C18.6944 76.3617 18.5248 76.3406 18.3129 76.3406C17.7194 76.3406 17.3378 76.7192 17.3378 77.3711V79.6003H16.3204V75.4994H16.9987L17.1895 76.1093C17.4226 75.6466 17.8466 75.4153 18.3765 75.4153C18.6732 75.4153 18.9064 75.4784 19.0971 75.5835Z" fill="#294570"/>
<path d="M19.3092 77.5604C19.3092 76.2986 20.2206 75.3943 21.5136 75.3943C22.8066 75.3943 23.7392 76.2776 23.7392 77.5604C23.7392 78.8223 22.8066 79.7266 21.5136 79.7266C20.2206 79.7266 19.3092 78.8223 19.3092 77.5604ZM22.7006 77.5604C22.7006 76.8033 22.2131 76.2776 21.5136 76.2776C20.8141 76.2776 20.3266 76.8033 20.3266 77.5604C20.3266 78.3175 20.8141 78.8433 21.5136 78.8433C22.2343 78.8433 22.7006 78.3175 22.7006 77.5604Z" fill="#294570"/>
<path d="M28.3172 79.5584V79.6215H27.1514L25.6677 77.876V79.6215H24.6503V73.0179H25.6677V77.1609L27.0454 75.5416H28.19V75.5837L26.5579 77.5185L28.3172 79.5584Z" fill="#294570"/>
<path d="M32.4928 77.4134C32.4928 77.5606 32.4716 77.7288 32.4504 77.8971H29.4829C29.6101 78.549 30.14 78.9065 30.7971 78.9065C31.2634 78.9065 31.6025 78.7593 31.8993 78.528L32.3232 79.1799C31.8569 79.5585 31.3482 79.7477 30.7123 79.7477C29.3981 79.7477 28.4867 78.8645 28.4867 77.5606C28.4867 76.3618 29.3557 75.4155 30.6063 75.4155C31.7933 75.3944 32.4928 76.1726 32.4928 77.4134ZM29.5041 77.203H31.5389C31.5177 76.5511 31.115 76.2146 30.5851 76.2146C30.0552 76.2146 29.6313 76.5721 29.5041 77.203Z" fill="#294570"/>
<path d="M36.1813 75.5835L35.927 76.4247C35.7786 76.3617 35.6091 76.3406 35.3971 76.3406C34.8036 76.3406 34.4221 76.7192 34.4221 77.3711V79.6003H33.4047V75.4994H34.0829L34.2737 76.1093C34.5069 75.6466 34.9308 75.4153 35.4607 75.4153C35.7574 75.4153 35.9906 75.4784 36.1813 75.5835Z" fill="#294570"/>
<path d="M36.4565 79.2428L36.8593 78.5278C37.2196 78.7381 37.6011 78.8643 37.9827 78.8643C38.343 78.8643 38.5973 78.696 38.5973 78.4437C38.5973 78.1492 38.2158 78.002 37.7919 77.8338C37.1348 77.5814 36.6261 77.2449 36.6261 76.572C36.6261 75.8149 37.3044 75.4153 38.0886 75.4153C38.555 75.4153 39.0001 75.5204 39.4452 75.7728L39.0849 76.4458C38.7881 76.2986 38.449 76.2144 38.1734 76.2144C37.8555 76.2144 37.5799 76.2986 37.5799 76.572C37.5799 76.8454 37.8767 76.9926 38.3218 77.1608C39.0425 77.4342 39.5724 77.7707 39.5724 78.4437C39.5724 79.2008 38.9577 79.6845 38.0462 79.6845C37.4528 79.7055 36.9441 79.5583 36.4565 79.2428Z" fill="#294570"/>
<path d="M29.5689 55.5843L19.7763 45.8682H19.6915L19.7127 16.6779L9.89893 26.3939L9.96251 45.7841L10.0897 45.8682H9.96251L19.7763 55.6053H29.5901H29.5689L39.3191 45.8682L39.3615 26.6042L29.5477 16.8671L29.5689 55.5843Z" fill="#294570"/>
<path d="M9.89893 16.6779V21.5359L14.7952 16.6779H9.89893Z" fill="#294570"/>
<path d="M39.3189 16.6774H34.4226L39.3189 21.5354V16.6774Z" fill="#294570"/>
<path d="M52.4817 68.8967L52.5029 39.6853L42.6891 49.4224L42.7527 68.8125L42.8799 68.8967H42.7527L52.5665 78.6338H62.3802L52.5665 68.8967H52.4817Z" fill="#294570"/>
<path d="M62.3793 39.6851H52.5656L62.3793 49.4222L52.5656 59.1593H62.3793L72.1931 49.4222L62.3793 39.6851Z" fill="#294570"/>
<path d="M62.3796 78.6334L72.1934 68.8963L62.3796 59.1592V78.6334Z" fill="#294570"/>
<path d="M42.7531 39.6851V44.5641L47.6705 39.6851H42.7531Z" fill="#294570"/>
</svg>
