<svg width="53" height="55" viewBox="0 0 53 55" fill="none" xmlns="http://www.w3.org/2000/svg">
<path d="M49.8183 0.600586H3.72803C2.07117 0.600586 0.728027 1.94373 0.728027 3.60059V51.0234C0.728027 52.6803 2.07118 54.0234 3.72803 54.0234H49.8183C51.4752 54.0234 52.8183 52.6803 52.8183 51.0234V3.60059C52.8183 1.94373 51.4751 0.600586 49.8183 0.600586Z" fill="white"/>
<path d="M20.6321 17.5026C20.3836 17.3465 20.1008 17.2571 19.8098 17.2424C19.5187 17.2277 19.2288 17.2883 18.9665 17.4186L27.9542 26.6593L30.894 23.6304L20.6321 17.5026ZM18.1383 18.2773C18.0232 18.5284 17.9641 18.8026 17.9654 19.08V35.9795C17.9649 36.2543 18.0256 36.5257 18.1428 36.7729L27.126 27.5087L18.1383 18.2773ZM27.9542 28.3675L18.9802 37.6129C19.2143 37.7227 19.4691 37.7784 19.7265 37.7763C20.0467 37.7796 20.3616 37.6924 20.6366 37.5243L30.894 31.3871L27.9542 28.3675ZM34.7803 25.9686L31.9407 24.2418L28.7824 27.5087L31.9452 30.7757L34.8031 29.0675C35.0611 28.9064 35.2743 28.6798 35.4223 28.4097C35.5702 28.1395 35.6479 27.8349 35.6479 27.5251C35.6479 27.2153 35.5702 26.9106 35.4223 26.6405C35.2743 26.3704 35.0611 26.1438 34.8031 25.9826L34.7803 25.9686Z" fill="#294570"/>
</svg>
