<svg width="100" height="102" viewBox="0 0 100 102" fill="none" xmlns="http://www.w3.org/2000/svg">
<path d="M1.05103 84.3135V77.8346H2.80388V84.226C2.80388 85.8019 3.76794 86.5023 5.08258 86.5023C6.48486 86.5023 7.36129 85.7144 7.36129 84.226V77.8346H9.11413V84.3135C9.11413 86.765 7.44893 88.0783 5.08258 88.0783C2.80388 88.0783 1.05103 86.765 1.05103 84.3135Z" fill="white"/>
<path d="M17.0901 83.7888V87.9038H15.5125V83.8764C15.5125 83.0884 15.1619 82.5631 14.3731 82.5631C13.3214 82.5631 12.7956 83.2635 12.7956 84.2266V87.9038H11.218V81.2498H12.3574L12.7079 82.3005C13.1461 81.6 13.8473 81.0747 14.899 81.0747C16.3013 81.0747 17.0901 82.0378 17.0901 83.7888Z" fill="white"/>
<path d="M18.7554 78.8852C18.7554 78.3599 19.1059 77.9221 19.8071 77.9221C20.4206 77.9221 20.8588 78.3599 20.8588 78.8852C20.8588 79.4105 20.4206 79.8483 19.8071 79.8483C19.1059 79.8483 18.7554 79.4981 18.7554 78.8852ZM18.9307 81.2491H20.5082V87.9032H18.9307V81.2491Z" fill="white"/>
<path d="M22.9621 85.8899V82.6504L21.8228 82.5629V81.2496H22.9621L23.0498 79.1483H24.5397V81.2496H26.5555V82.6504H24.5397V85.7148C24.5397 86.3277 24.8026 86.5903 25.2408 86.5903C25.5914 86.5903 25.942 86.5028 26.3802 86.2401L26.906 87.4658C26.2925 87.8161 25.679 88.0787 24.8903 88.0787C23.7509 88.0787 22.9621 87.3783 22.9621 85.8899Z" fill="white"/>
<path d="M33.8298 84.3142C33.8298 84.5769 33.8298 84.8396 33.7421 85.1022H29.0094C29.1847 86.1528 30.0612 86.7657 31.1129 86.7657C31.9016 86.7657 32.4275 86.5031 32.8657 86.1528L33.5669 87.2035C32.7781 87.8163 31.9893 88.1666 31.0252 88.1666C28.9218 88.1666 27.4319 86.7657 27.4319 84.6644C27.4319 82.7383 28.8342 81.1623 30.8499 81.1623C32.6904 81.0748 33.8298 82.3881 33.8298 84.3142ZM29.0971 84.0516H32.3399C32.2522 83.0009 31.6387 82.4756 30.8499 82.4756C29.9735 82.3881 29.2724 83.0009 29.0971 84.0516Z" fill="white"/>
<path d="M41.893 77.2217V87.9031H40.7536L40.4907 86.9401C39.9649 87.6405 39.1761 88.0783 38.1244 88.0783C36.1962 88.0783 34.9692 86.6774 34.9692 84.5761C34.9692 82.5624 36.2839 81.1616 38.1244 81.1616C39.0008 81.1616 39.7896 81.5118 40.3154 82.1247C40.3154 81.5118 40.2278 80.9865 40.2278 80.1985V77.2217H41.893ZM40.3154 84.5761C40.3154 83.3504 39.5266 82.5624 38.3873 82.5624C37.2479 82.5624 36.4592 83.3504 36.4592 84.5761C36.4592 85.8019 37.2479 86.6774 38.3873 86.6774C39.6143 86.6774 40.3154 85.8019 40.3154 84.5761Z" fill="white"/>
<path d="M8.67423 98.9349C8.67423 100.598 7.35959 101.737 5.51909 101.737H1.22461V91.668H5.25617C7.00902 91.668 8.32366 92.7186 8.32366 94.2946C8.32366 95.2576 7.88544 95.9581 7.09666 96.4834C8.06073 96.8336 8.67423 97.7967 8.67423 98.9349ZM2.97746 95.783H4.99324C5.95731 95.783 6.57081 95.2576 6.57081 94.3821C6.57081 93.5941 5.95731 93.0688 4.99324 93.0688H2.97746V95.783ZM6.92138 98.7598C6.92138 97.8842 6.30788 97.2714 5.34381 97.2714H2.97746V100.336H5.25617C6.22024 100.248 6.92138 99.7228 6.92138 98.7598Z" fill="white"/>
<path d="M14.8116 95.2582L14.3733 96.659C14.1104 96.5715 13.8475 96.4839 13.4969 96.4839C12.5329 96.4839 11.9194 97.0968 11.9194 98.1474V101.737H10.3418V95.0831H11.3935L11.7441 96.0461C12.0946 95.3457 12.7958 94.908 13.6722 94.908C14.1104 94.908 14.461 95.0831 14.8116 95.2582Z" fill="white"/>
<path d="M15.0745 98.4101C15.0745 96.3964 16.5644 94.908 18.6678 94.908C20.7712 94.908 22.2611 96.3088 22.2611 98.4101C22.2611 100.424 20.7712 101.912 18.6678 101.912C16.5644 101.912 15.0745 100.424 15.0745 98.4101ZM20.5959 98.4101C20.5959 97.1843 19.8072 96.3088 18.6678 96.3088C17.5285 96.3088 16.7397 97.1843 16.7397 98.4101C16.7397 99.6358 17.5285 100.511 18.6678 100.511C19.8072 100.424 20.5959 99.6358 20.5959 98.4101Z" fill="white"/>
<path d="M29.5354 101.649V101.736H27.6949L25.3285 98.9347V101.736H23.6633V91.0549H25.2409V97.709L27.432 95.0824H29.2725V95.1699L26.6432 98.3218L29.5354 101.649Z" fill="white"/>
<path d="M36.2836 98.1476C36.2836 98.4103 36.2836 98.673 36.196 98.9356H31.4633C31.6386 99.9862 32.515 100.599 33.5667 100.599C34.3555 100.599 34.8814 100.336 35.3196 99.9862L36.0207 101.037C35.2319 101.65 34.4431 102 33.4791 102C31.3757 102 29.8857 100.599 29.8857 98.4978C29.8857 96.5717 31.288 94.9957 33.3038 94.9957C35.1443 94.9082 36.2836 96.1339 36.2836 98.1476ZM31.4633 97.7974H34.7061C34.6184 96.7468 34.0049 96.2215 33.2162 96.2215C32.3397 96.2215 31.6386 96.8343 31.4633 97.7974Z" fill="white"/>
<path d="M42.1558 95.2582L41.7176 96.659C41.4547 96.5715 41.1917 96.4839 40.8412 96.4839C39.8771 96.4839 39.2636 97.0968 39.2636 98.1474V101.737H37.686V95.0831H38.8254L39.176 96.0461C39.5265 95.3457 40.2277 94.908 41.1041 94.908C41.5423 94.908 41.8929 95.0831 42.1558 95.2582Z" fill="white"/>
<path d="M42.594 101.124L43.2075 99.9861C43.7333 100.336 44.4345 100.511 45.048 100.511C45.6615 100.511 46.012 100.249 46.012 99.811C46.012 99.2857 45.3985 99.1106 44.6974 98.8479C43.6457 98.4102 42.8569 97.8849 42.8569 96.8342C42.8569 95.6085 43.9086 94.9956 45.2233 94.9956C46.012 94.9956 46.7132 95.1707 47.4143 95.6085L46.8885 96.6591C46.3626 96.3965 45.8368 96.3089 45.3985 96.3089C44.8727 96.3089 44.4345 96.484 44.4345 96.8342C44.4345 97.272 44.9603 97.5346 45.6615 97.7973C46.8008 98.2351 47.6772 98.7604 47.6772 99.8986C47.6772 101.124 46.7132 101.912 45.2233 101.912C44.2592 101.825 43.3828 101.65 42.594 101.124Z" fill="white"/>
<path d="M31.5513 62.863L15.8633 47.191H15.688L15.7756 0L0 15.7595L0.0876425 47.0159L0.262927 47.191H0.0876425L15.8633 62.9506H31.6389H31.5513L47.2393 47.191V16.0222L31.5513 0.350212V62.863Z" fill="white"/>
<path d="M0 0V7.87977L7.88782 0H0Z" fill="white"/>
<path d="M47.2392 0H39.3513L47.2392 7.87977V0Z" fill="white"/>
<path d="M68.3611 84.401V37.21L52.6731 52.9695L52.7607 84.2259L52.936 84.401H52.7607L68.4487 100.161H84.2244L68.4487 84.401H68.3611Z" fill="white"/>
<path d="M84.2244 37.21H68.4487L84.2244 52.9695L68.4487 68.6415H84.2244L100 52.9695L84.2244 37.21Z" fill="white"/>
<path d="M84.2244 100.161L100 84.401L84.2244 68.6415V100.161Z" fill="white"/>
<path d="M52.761 37.21V45.0897L60.6488 37.21H52.761Z" fill="white"/>
</svg>
