<svg width="33" height="35" viewBox="0 0 33 35" fill="none" xmlns="http://www.w3.org/2000/svg">
<path d="M12.6555 16.0686C12.2655 15.6775 11.6323 15.6766 11.2413 16.0666C10.8502 16.4565 10.8493 17.0897 11.2393 17.4808L12.6555 16.0686ZM15.296 20.1328L14.5879 20.8389V20.8389L15.296 20.1328ZM16.0112 20.1255L16.7336 20.817L16.0112 20.1255ZM22.3157 14.9858C22.6976 14.5869 22.6838 13.9539 22.2848 13.572C21.8859 13.1901 21.2528 13.2039 20.8709 13.6028L22.3157 14.9858ZM2.327 5.9114L2.48634 4.92418L2.48634 4.92418L2.327 5.9114ZM15.2681 1.45905L16.0487 2.08417V2.08417L15.2681 1.45905ZM17.4048 1.50783L18.1955 0.895728V0.895728L17.4048 1.50783ZM30.0569 5.86016L30.203 6.84942L30.0569 5.86016ZM31.2285 6.739L32.2253 6.65926V6.65926L31.2285 6.739ZM16.7339 32.9867L17.089 33.9215H17.089L16.7339 32.9867ZM16.0358 32.9806L15.6519 33.904H15.6519L16.0358 32.9806ZM1.08602 6.83628L0.0886853 6.76331L1.08602 6.83628ZM11.2393 17.4808L14.5879 20.8389L16.0041 19.4267L12.6555 16.0686L11.2393 17.4808ZM16.7336 20.817L22.3157 14.9858L20.8709 13.6028L15.2889 19.434L16.7336 20.817ZM14.5879 20.8389C15.1825 21.4352 16.1513 21.4253 16.7336 20.817L15.2889 19.434C15.483 19.2312 15.8059 19.2279 16.0041 19.4267L14.5879 20.8389ZM2.16766 6.89863C5.76147 7.47866 12.0213 7.11275 16.0487 2.08417L14.4876 0.833928C11.1106 5.05038 5.75421 5.4516 2.48634 4.92418L2.16766 6.89863ZM16.614 2.11992C18.7437 4.8714 23.1691 7.88873 30.203 6.84942L29.9107 4.8709C23.6614 5.79427 19.9277 3.13352 18.1955 0.895728L16.614 2.11992ZM30.2317 6.81874C30.5164 10.3773 30.141 15.5449 28.1359 20.3957C26.1402 25.2234 22.5469 29.709 16.3789 32.0518L17.089 33.9215C23.8756 31.3438 27.824 26.3856 29.9842 21.1597C32.1349 15.9569 32.5294 10.4609 32.2253 6.65926L30.2317 6.81874ZM16.4196 32.0572C10.9373 29.7783 0.990928 21.84 2.08335 6.90925L0.0886853 6.76331C-1.08509 22.8058 9.63608 31.4033 15.6519 33.904L16.4196 32.0572ZM16.3789 32.0518C16.3791 32.0518 16.3824 32.0505 16.3893 32.0506C16.3965 32.0506 16.4073 32.0521 16.4196 32.0572L15.6519 33.904C16.1238 34.1002 16.6383 34.0927 17.089 33.9215L16.3789 32.0518ZM30.203 6.84942C30.2154 6.84759 30.2258 6.84851 30.2341 6.85057C30.2429 6.85276 30.248 6.8559 30.2493 6.85688C30.2504 6.85769 30.2461 6.85482 30.2408 6.84572C30.2382 6.84121 30.2359 6.83603 30.2342 6.83057C30.2325 6.82502 30.2319 6.8208 30.2317 6.81874L32.2253 6.65926C32.1269 5.42863 30.9807 4.7128 29.9107 4.8709L30.203 6.84942ZM16.0487 2.08417C16.0696 2.05809 16.1498 1.99574 16.3131 2.0002C16.4774 2.0047 16.5787 2.07439 16.614 2.11992L18.1955 0.895728C17.7292 0.293248 17.0184 0.0187451 16.3678 0.000952005C15.7163 -0.0168667 14.979 0.220405 14.4876 0.833928L16.0487 2.08417ZM2.48634 4.92418C1.38027 4.74566 0.181594 5.49349 0.0886853 6.76331L2.08335 6.90925C2.08335 6.90925 2.08335 6.90929 2.08334 6.90938C2.08333 6.90946 2.08332 6.90959 2.0833 6.90975C2.08326 6.91007 2.08319 6.91051 2.08308 6.91106C2.08287 6.91219 2.08254 6.91354 2.08208 6.91503C2.0811 6.91816 2.0799 6.92069 2.07895 6.92232C2.07711 6.9255 2.07806 6.92237 2.08608 6.91651C2.10502 6.9027 2.1357 6.89347 2.16766 6.89863L2.48634 4.92418Z" fill="#A0A0A0"/>
</svg>
