<svg width="26" height="31" viewBox="0 0 26 31" fill="none" xmlns="http://www.w3.org/2000/svg">
<path d="M12.7537 30.29C5.71002 30.29 0 24.58 0 17.5363C0 10.4927 5.71002 4.78263 12.7537 4.78263C19.7973 4.78263 25.5074 10.4927 25.5074 17.5363C25.4995 24.5767 19.7941 30.2821 12.7537 30.29ZM12.7537 7.97105C7.47093 7.97105 3.18842 12.2536 3.18842 17.5363C3.18842 22.8191 7.47093 27.1016 12.7537 27.1016C18.0364 27.1016 22.3189 22.8191 22.3189 17.5363C22.3128 12.2561 18.0339 7.9772 12.7537 7.97105ZM14.3479 17.5363C14.3479 18.4168 13.6341 19.1305 12.7537 19.1305C11.8732 19.1305 11.1595 18.4168 11.1595 17.5363V12.7537C11.1595 11.8732 11.8732 11.1595 12.7537 11.1595C13.6341 11.1595 14.3479 11.8732 14.3479 12.7537V17.5363ZM24.3818 9.09657C24.381 9.09745 24.3795 9.09745 24.3787 9.09657L22.3189 7.03684C21.6965 6.41436 21.6965 5.40512 22.3189 4.78263C22.9414 4.16015 23.9507 4.16015 24.5732 4.78263L25.2203 5.42973C26.0013 6.21078 26.0013 7.47711 25.2203 8.25816L24.3818 9.09657ZM17.5363 1.59421C17.5363 2.47467 16.8226 3.18842 15.9421 3.18842H9.56526C8.6848 3.18842 7.97105 2.47467 7.97105 1.59421C7.97105 0.713752 8.6848 0 9.56526 0H15.9421C16.8226 0 17.5363 0.713752 17.5363 1.59421Z" fill="#A0A0A0"/>
</svg>
