<svg width="32" height="35" viewBox="0 0 32 35" fill="none" xmlns="http://www.w3.org/2000/svg">
<path d="M28.2936 13.321H27.5436V11.8806C27.5436 5.32963 22.2897 0 15.8314 0C9.37312 0 4.11915 5.32963 4.11915 11.8806V13.321H3.70639C1.66261 13.321 0 15.0076 0 17.0808V23.02C0 25.0932 1.66261 26.7798 3.70639 26.7798H6.2906C7.21957 26.7798 7.97532 26.0131 7.97532 25.0708V15.03C7.97532 14.0876 7.21957 13.321 6.2906 13.321H6.14082V11.8806C6.14082 6.46049 10.4879 2.05078 15.8317 2.05078C21.1749 2.05078 25.522 6.46049 25.522 11.8806V13.3319C24.6809 13.4267 24.0247 14.152 24.0247 15.03V25.0711C24.0247 25.9491 24.6809 26.674 25.522 26.7691V27.1253C25.522 29.2036 23.8552 30.8944 21.8064 30.8944H19.3719C18.8802 29.6987 17.5548 28.8396 15.9999 28.8396C14.0277 28.8396 12.4233 30.2215 12.4233 31.9198C12.4233 33.6181 14.0277 35 15.9999 35C17.5548 35 18.8802 34.141 19.3719 32.9452H21.8064C24.97 32.9452 27.5436 30.3345 27.5436 27.1253V26.7798H28.2936C30.3371 26.7798 32 25.0932 32 23.02V17.0808C32 15.0076 30.3371 13.321 28.2936 13.321ZM5.95365 24.729H3.70639C2.77742 24.729 2.02167 23.9624 2.02167 23.02V17.0808C2.02167 16.1384 2.77742 15.3718 3.70639 15.3718H5.95365V24.729ZM15.9999 32.9492C15.0835 32.9492 14.4449 32.4066 14.4449 31.9198C14.4449 31.4328 15.0835 30.8904 15.9999 30.8904C16.9162 30.8904 17.5548 31.433 17.5548 31.9198C17.5548 32.4066 16.9162 32.9492 15.9999 32.9492ZM29.9783 23.02C29.9783 23.9624 29.2226 24.729 28.2936 24.729H26.0463V15.3718H28.2936C29.2226 15.3718 29.9783 16.1384 29.9783 17.0808V23.02Z" fill="#A0A0A0"/>
</svg>
