<svg width="32" height="24" viewBox="0 0 32 24" fill="none" xmlns="http://www.w3.org/2000/svg">
<path d="M11.0555 1.39846C11.1036 1.16639 11.308 1 11.545 1H19.7701C20.0071 1 20.2115 1.16639 20.2596 1.39846L21.7707 8.68417C21.8351 8.99454 21.5981 9.28572 21.2812 9.28572H10.0339C9.71695 9.28572 9.47997 8.99454 9.54434 8.68417L11.0555 1.39846ZM2.52207 15.1128C2.5702 14.8807 2.77465 14.7143 3.01165 14.7143H11.2367C11.4737 14.7143 11.6781 14.8807 11.7263 15.1128L13.2374 22.3985C13.3017 22.7088 13.0648 23 12.7478 23H1.50054C1.18357 23 0.946589 22.7088 1.01096 22.3985L2.52207 15.1128ZM19.5887 15.1128C19.6368 14.8807 19.8413 14.7143 20.0783 14.7143H28.3033C28.5403 14.7143 28.7448 14.8807 28.7929 15.1128L30.304 22.3985C30.3684 22.7088 30.1314 23 29.8144 23H18.5672C18.2502 23 18.0132 22.7088 18.0776 22.3985L19.5887 15.1128Z" stroke="#A0A0A0" stroke-width="2"/>
</svg>
