<svg width="53" height="55" viewBox="0 0 53 55" fill="none" xmlns="http://www.w3.org/2000/svg">
<path d="M49.3918 0.600586H3.89648C2.23963 0.600586 0.896484 1.94373 0.896484 3.60059V51.0234C0.896484 52.6803 2.23963 54.0234 3.89648 54.0234H49.3918C51.0486 54.0234 52.3918 52.6803 52.3918 51.0234V3.60059C52.3918 1.94373 51.0486 0.600586 49.3918 0.600586Z" fill="white"/>
<path d="M38.2839 27.411C38.2839 27.2936 38.2839 27.1763 38.2839 27.059C38.2798 24.1265 36.1154 21.7534 33.4559 21.7579C32.6499 21.7579 31.8602 21.9835 31.1524 22.4121C30.2154 18.0583 26.2589 15.3694 22.3146 16.4026C19.0209 17.2643 16.6888 20.4991 16.6683 24.2348C16.6683 24.2799 16.6683 24.3295 16.6683 24.3746C13.1905 25.2363 11.0015 29.0442 11.783 32.8791C12.4417 36.1274 15.0562 38.4374 18.0717 38.4419H36.4918C39.3477 38.4419 41.6594 35.8928 41.6635 32.7482C41.6635 30.3661 40.3215 28.2366 38.3003 27.4064L38.2839 27.411ZM22.3555 34.1513C22.3555 34.5393 22.0691 34.8551 21.7173 34.8551C21.3654 34.8551 21.079 34.5393 21.079 34.1513V30.6097C21.079 30.2217 21.3654 29.9059 21.7173 29.9059C22.0691 29.9059 22.3555 30.2217 22.3555 30.6097V34.1513ZM25.1623 34.1513C25.1623 34.5393 24.8759 34.8551 24.5241 34.8551C24.1722 34.8551 23.8858 34.5393 23.8858 34.1513V28.1057C23.8858 27.7177 24.1722 27.4019 24.5241 27.4019C24.8759 27.4019 25.1623 27.7177 25.1623 28.1057V34.1513ZM27.9691 34.1198C27.9691 34.5078 27.6827 34.8236 27.3309 34.8236C26.979 34.8236 26.6926 34.5078 26.6926 34.1198V32.6038C26.6926 32.2158 26.979 31.9 27.3309 31.9C27.6827 31.9 27.9691 32.2158 27.9691 32.6038V34.1198ZM30.7759 34.0431C30.7759 34.4311 30.4895 34.7469 30.1377 34.7469C29.7858 34.7469 29.4994 34.4311 29.4994 34.0431V25.9943C29.4994 25.6063 29.7858 25.2905 30.1377 25.2905C30.4895 25.2905 30.7759 25.6063 30.7759 25.9943V34.0431Z" fill="#294570"/>
</svg>
