<svg width="52" height="55" viewBox="0 0 52 55" fill="none" xmlns="http://www.w3.org/2000/svg">
<path d="M48.8732 0.600586H3C1.34315 0.600586 0 1.94373 0 3.60059V51.0234C0 52.6803 1.34315 54.0234 3 54.0234H48.8732C50.5301 54.0234 51.8732 52.6803 51.8732 51.0234V3.60059C51.8732 1.94373 50.5301 0.600586 48.8732 0.600586Z" fill="white"/>
<path d="M14.5088 28.4194V35.1702L23.9065 36.5552V28.4194H14.5088Z" fill="#294570"/>
<path d="M23.9065 18.0508L14.5088 19.4362V26.189H23.9065V18.0508Z" fill="#294570"/>
<path d="M37.105 26.1884V16.0106L26.09 17.6281V26.1884H37.105Z" fill="#294570"/>
<path d="M26.0901 36.9958L37.1052 38.6133V28.4189H26.0901V36.9958Z" fill="#294570"/>
</svg>
